<mxfile host="app.diagrams.net" modified="2022-11-06T22:04:05.561Z" agent="5.0 (Macintosh; Intel Mac OS X 10_15_7) AppleWebKit/605.1.15 (KHTML, like Gecko) Version/16.1 Safari/605.1.15" etag="Y8jj3w0A6PyNiLBTsf3P" version="20.5.2" type="github">
  <diagram id="q-HgXk9vZ9mFhH7-OCUe" name="Сторінка-1">
    <mxGraphModel dx="946" dy="622" grid="1" gridSize="10" guides="1" tooltips="1" connect="1" arrows="1" fold="1" page="1" pageScale="1" pageWidth="827" pageHeight="1169" math="0" shadow="0">
      <root>
        <mxCell id="0" />
        <mxCell id="1" parent="0" />
        <mxCell id="b17_bk7_YpQN-N9euL_j-1" value="Actor" style="shape=umlActor;verticalLabelPosition=bottom;verticalAlign=top;html=1;outlineConnect=0;labelBackgroundColor=default;strokeWidth=2;" parent="1" vertex="1">
          <mxGeometry x="400" y="290" width="30" height="60" as="geometry" />
        </mxCell>
        <mxCell id="b17_bk7_YpQN-N9euL_j-2" value="" style="curved=1;endArrow=classic;html=1;rounded=0;labelBackgroundColor=default;strokeWidth=2;" parent="1" edge="1">
          <mxGeometry width="50" height="50" relative="1" as="geometry">
            <mxPoint x="430" y="310" as="sourcePoint" />
            <mxPoint x="480" y="260" as="targetPoint" />
            <Array as="points">
              <mxPoint x="480" y="310" />
              <mxPoint x="430" y="260" />
            </Array>
          </mxGeometry>
        </mxCell>
        <mxCell id="b17_bk7_YpQN-N9euL_j-3" value="регистрация" style="edgeLabel;html=1;align=center;verticalAlign=middle;resizable=0;points=[];fontSize=8;labelBackgroundColor=default;" parent="b17_bk7_YpQN-N9euL_j-2" vertex="1" connectable="0">
          <mxGeometry x="0.2075" y="-4" relative="1" as="geometry">
            <mxPoint as="offset" />
          </mxGeometry>
        </mxCell>
        <mxCell id="b17_bk7_YpQN-N9euL_j-4" value="Profile&amp;nbsp;" style="swimlane;fontStyle=0;childLayout=stackLayout;horizontal=1;startSize=30;horizontalStack=0;resizeParent=1;resizeParentMax=0;resizeLast=0;collapsible=1;marginBottom=0;whiteSpace=wrap;html=1;fontSize=8;labelBackgroundColor=default;swimlaneFillColor=default;strokeWidth=2;" parent="1" vertex="1">
          <mxGeometry x="480" y="210" width="140" height="120" as="geometry" />
        </mxCell>
        <mxCell id="b17_bk7_YpQN-N9euL_j-5" value="name, surname" style="text;strokeColor=none;fillColor=none;align=left;verticalAlign=middle;spacingLeft=4;spacingRight=4;overflow=hidden;points=[[0,0.5],[1,0.5]];portConstraint=eastwest;rotatable=0;whiteSpace=wrap;html=1;fontSize=8;labelBackgroundColor=default;swimlaneFillColor=default;strokeWidth=2;" parent="b17_bk7_YpQN-N9euL_j-4" vertex="1">
          <mxGeometry y="30" width="140" height="30" as="geometry" />
        </mxCell>
        <mxCell id="b17_bk7_YpQN-N9euL_j-6" value="saved information (tel.num, email, address)" style="text;strokeColor=none;fillColor=none;align=left;verticalAlign=middle;spacingLeft=4;spacingRight=4;overflow=hidden;points=[[0,0.5],[1,0.5]];portConstraint=eastwest;rotatable=0;whiteSpace=wrap;html=1;fontSize=8;labelBackgroundColor=default;swimlaneFillColor=default;strokeWidth=2;" parent="b17_bk7_YpQN-N9euL_j-4" vertex="1">
          <mxGeometry y="60" width="140" height="30" as="geometry" />
        </mxCell>
        <mxCell id="b17_bk7_YpQN-N9euL_j-7" value="saved cards" style="text;strokeColor=none;fillColor=none;align=left;verticalAlign=middle;spacingLeft=4;spacingRight=4;overflow=hidden;points=[[0,0.5],[1,0.5]];portConstraint=eastwest;rotatable=0;whiteSpace=wrap;html=1;fontSize=8;labelBackgroundColor=default;swimlaneFillColor=default;strokeWidth=2;" parent="b17_bk7_YpQN-N9euL_j-4" vertex="1">
          <mxGeometry y="90" width="140" height="30" as="geometry" />
        </mxCell>
        <mxCell id="u2-2UF2B9QY7-RAUoQWc-1" value="" style="curved=1;endArrow=classic;html=1;rounded=0;fontSize=8;labelBackgroundColor=default;strokeWidth=2;" edge="1" parent="1">
          <mxGeometry width="50" height="50" relative="1" as="geometry">
            <mxPoint x="400" y="310" as="sourcePoint" />
            <mxPoint x="350" y="260" as="targetPoint" />
            <Array as="points">
              <mxPoint x="350" y="310" />
              <mxPoint x="400" y="260" />
            </Array>
          </mxGeometry>
        </mxCell>
        <mxCell id="u2-2UF2B9QY7-RAUoQWc-2" value="поиск" style="edgeLabel;html=1;align=center;verticalAlign=middle;resizable=0;points=[];fontSize=8;labelBackgroundColor=default;" vertex="1" connectable="0" parent="u2-2UF2B9QY7-RAUoQWc-1">
          <mxGeometry x="0.6402" y="6" relative="1" as="geometry">
            <mxPoint as="offset" />
          </mxGeometry>
        </mxCell>
        <mxCell id="u2-2UF2B9QY7-RAUoQWc-10" style="edgeStyle=orthogonalEdgeStyle;rounded=0;orthogonalLoop=1;jettySize=auto;html=1;labelBackgroundColor=default;fontSize=8;entryX=0.5;entryY=1;entryDx=0;entryDy=0;entryPerimeter=0;strokeWidth=2;" edge="1" parent="1" source="u2-2UF2B9QY7-RAUoQWc-3" target="u2-2UF2B9QY7-RAUoQWc-14">
          <mxGeometry relative="1" as="geometry">
            <mxPoint x="280" y="180" as="targetPoint" />
          </mxGeometry>
        </mxCell>
        <mxCell id="u2-2UF2B9QY7-RAUoQWc-26" value="сохранить в" style="edgeLabel;html=1;align=center;verticalAlign=middle;resizable=0;points=[];fontSize=8;" vertex="1" connectable="0" parent="u2-2UF2B9QY7-RAUoQWc-10">
          <mxGeometry x="0.1357" y="1" relative="1" as="geometry">
            <mxPoint as="offset" />
          </mxGeometry>
        </mxCell>
        <mxCell id="u2-2UF2B9QY7-RAUoQWc-3" value="Items&amp;nbsp;" style="swimlane;fontStyle=0;childLayout=stackLayout;horizontal=1;startSize=30;horizontalStack=0;resizeParent=1;resizeParentMax=0;resizeLast=0;collapsible=1;marginBottom=0;whiteSpace=wrap;html=1;fontSize=8;labelBackgroundColor=default;swimlaneFillColor=default;strokeWidth=2;" vertex="1" parent="1">
          <mxGeometry x="210" y="210" width="140" height="210" as="geometry" />
        </mxCell>
        <mxCell id="u2-2UF2B9QY7-RAUoQWc-4" value="name of item" style="text;strokeColor=none;fillColor=none;align=left;verticalAlign=middle;spacingLeft=4;spacingRight=4;overflow=hidden;points=[[0,0.5],[1,0.5]];portConstraint=eastwest;rotatable=0;whiteSpace=wrap;html=1;fontSize=8;labelBackgroundColor=default;swimlaneFillColor=default;strokeWidth=2;" vertex="1" parent="u2-2UF2B9QY7-RAUoQWc-3">
          <mxGeometry y="30" width="140" height="30" as="geometry" />
        </mxCell>
        <mxCell id="u2-2UF2B9QY7-RAUoQWc-5" value="category&amp;nbsp;" style="text;strokeColor=none;fillColor=none;align=left;verticalAlign=middle;spacingLeft=4;spacingRight=4;overflow=hidden;points=[[0,0.5],[1,0.5]];portConstraint=eastwest;rotatable=0;whiteSpace=wrap;html=1;fontSize=8;labelBackgroundColor=default;swimlaneFillColor=default;strokeWidth=2;" vertex="1" parent="u2-2UF2B9QY7-RAUoQWc-3">
          <mxGeometry y="60" width="140" height="30" as="geometry" />
        </mxCell>
        <mxCell id="u2-2UF2B9QY7-RAUoQWc-6" value="filters" style="text;strokeColor=none;fillColor=none;align=left;verticalAlign=middle;spacingLeft=4;spacingRight=4;overflow=hidden;points=[[0,0.5],[1,0.5]];portConstraint=eastwest;rotatable=0;whiteSpace=wrap;html=1;fontSize=8;labelBackgroundColor=default;swimlaneFillColor=default;strokeWidth=2;" vertex="1" parent="u2-2UF2B9QY7-RAUoQWc-3">
          <mxGeometry y="90" width="140" height="30" as="geometry" />
        </mxCell>
        <mxCell id="u2-2UF2B9QY7-RAUoQWc-7" value="price" style="text;strokeColor=none;fillColor=none;align=left;verticalAlign=middle;spacingLeft=4;spacingRight=4;overflow=hidden;points=[[0,0.5],[1,0.5]];portConstraint=eastwest;rotatable=0;whiteSpace=wrap;html=1;fontSize=8;labelBackgroundColor=default;swimlaneFillColor=default;strokeWidth=2;" vertex="1" parent="u2-2UF2B9QY7-RAUoQWc-3">
          <mxGeometry y="120" width="140" height="30" as="geometry" />
        </mxCell>
        <mxCell id="u2-2UF2B9QY7-RAUoQWc-8" value="size" style="text;strokeColor=none;fillColor=none;align=left;verticalAlign=middle;spacingLeft=4;spacingRight=4;overflow=hidden;points=[[0,0.5],[1,0.5]];portConstraint=eastwest;rotatable=0;whiteSpace=wrap;html=1;fontSize=8;labelBackgroundColor=default;swimlaneFillColor=default;strokeWidth=2;" vertex="1" parent="u2-2UF2B9QY7-RAUoQWc-3">
          <mxGeometry y="150" width="140" height="30" as="geometry" />
        </mxCell>
        <mxCell id="u2-2UF2B9QY7-RAUoQWc-9" value="material&amp;nbsp;" style="text;strokeColor=none;fillColor=none;align=left;verticalAlign=middle;spacingLeft=4;spacingRight=4;overflow=hidden;points=[[0,0.5],[1,0.5]];portConstraint=eastwest;rotatable=0;whiteSpace=wrap;html=1;fontSize=8;labelBackgroundColor=default;swimlaneFillColor=default;strokeWidth=2;" vertex="1" parent="u2-2UF2B9QY7-RAUoQWc-3">
          <mxGeometry y="180" width="140" height="30" as="geometry" />
        </mxCell>
        <mxCell id="u2-2UF2B9QY7-RAUoQWc-11" value="Shopping cart" style="swimlane;fontStyle=0;childLayout=stackLayout;horizontal=1;startSize=30;horizontalStack=0;resizeParent=1;resizeParentMax=0;resizeLast=0;collapsible=1;marginBottom=0;whiteSpace=wrap;html=1;fontSize=8;labelBackgroundColor=default;swimlaneFillColor=default;strokeWidth=2;" vertex="1" parent="1">
          <mxGeometry x="210" y="50" width="140" height="120" as="geometry" />
        </mxCell>
        <mxCell id="u2-2UF2B9QY7-RAUoQWc-12" value="item" style="text;strokeColor=none;fillColor=none;align=left;verticalAlign=middle;spacingLeft=4;spacingRight=4;overflow=hidden;points=[[0,0.5],[1,0.5]];portConstraint=eastwest;rotatable=0;whiteSpace=wrap;html=1;fontSize=8;labelBackgroundColor=default;swimlaneFillColor=default;strokeWidth=2;" vertex="1" parent="u2-2UF2B9QY7-RAUoQWc-11">
          <mxGeometry y="30" width="140" height="30" as="geometry" />
        </mxCell>
        <mxCell id="u2-2UF2B9QY7-RAUoQWc-13" value="item information" style="text;strokeColor=none;fillColor=none;align=left;verticalAlign=middle;spacingLeft=4;spacingRight=4;overflow=hidden;points=[[0,0.5],[1,0.5]];portConstraint=eastwest;rotatable=0;whiteSpace=wrap;html=1;fontSize=8;labelBackgroundColor=default;swimlaneFillColor=default;strokeWidth=2;" vertex="1" parent="u2-2UF2B9QY7-RAUoQWc-11">
          <mxGeometry y="60" width="140" height="30" as="geometry" />
        </mxCell>
        <mxCell id="u2-2UF2B9QY7-RAUoQWc-14" value="total price" style="text;strokeColor=none;fillColor=none;align=left;verticalAlign=middle;spacingLeft=4;spacingRight=4;overflow=hidden;points=[[0,0.5],[1,0.5]];portConstraint=eastwest;rotatable=0;whiteSpace=wrap;html=1;fontSize=8;labelBackgroundColor=default;swimlaneFillColor=default;strokeWidth=2;" vertex="1" parent="u2-2UF2B9QY7-RAUoQWc-11">
          <mxGeometry y="90" width="140" height="30" as="geometry" />
        </mxCell>
        <mxCell id="u2-2UF2B9QY7-RAUoQWc-17" value="Payment&amp;nbsp;" style="swimlane;fontStyle=0;childLayout=stackLayout;horizontal=1;startSize=30;horizontalStack=0;resizeParent=1;resizeParentMax=0;resizeLast=0;collapsible=1;marginBottom=0;whiteSpace=wrap;html=1;fontSize=8;labelBackgroundColor=default;swimlaneFillColor=default;strokeWidth=2;" vertex="1" parent="1">
          <mxGeometry x="40" y="210" width="140" height="180" as="geometry" />
        </mxCell>
        <mxCell id="u2-2UF2B9QY7-RAUoQWc-18" value="information from shopping cart" style="text;strokeColor=none;fillColor=none;align=left;verticalAlign=middle;spacingLeft=4;spacingRight=4;overflow=hidden;points=[[0,0.5],[1,0.5]];portConstraint=eastwest;rotatable=0;whiteSpace=wrap;html=1;fontSize=8;labelBackgroundColor=default;swimlaneFillColor=default;strokeWidth=2;" vertex="1" parent="u2-2UF2B9QY7-RAUoQWc-17">
          <mxGeometry y="30" width="140" height="30" as="geometry" />
        </mxCell>
        <mxCell id="u2-2UF2B9QY7-RAUoQWc-19" value="total price&lt;br&gt;" style="text;strokeColor=none;fillColor=none;align=left;verticalAlign=middle;spacingLeft=4;spacingRight=4;overflow=hidden;points=[[0,0.5],[1,0.5]];portConstraint=eastwest;rotatable=0;whiteSpace=wrap;html=1;fontSize=8;labelBackgroundColor=default;swimlaneFillColor=default;strokeWidth=2;" vertex="1" parent="u2-2UF2B9QY7-RAUoQWc-17">
          <mxGeometry y="60" width="140" height="30" as="geometry" />
        </mxCell>
        <mxCell id="u2-2UF2B9QY7-RAUoQWc-20" value="information about customer" style="text;strokeColor=none;fillColor=none;align=left;verticalAlign=middle;spacingLeft=4;spacingRight=4;overflow=hidden;points=[[0,0.5],[1,0.5]];portConstraint=eastwest;rotatable=0;whiteSpace=wrap;html=1;fontSize=8;labelBackgroundColor=default;swimlaneFillColor=default;strokeWidth=2;" vertex="1" parent="u2-2UF2B9QY7-RAUoQWc-17">
          <mxGeometry y="90" width="140" height="30" as="geometry" />
        </mxCell>
        <mxCell id="u2-2UF2B9QY7-RAUoQWc-21" value="card number, date, cvv" style="text;strokeColor=none;fillColor=none;align=left;verticalAlign=middle;spacingLeft=4;spacingRight=4;overflow=hidden;points=[[0,0.5],[1,0.5]];portConstraint=eastwest;rotatable=0;whiteSpace=wrap;html=1;fontSize=8;labelBackgroundColor=default;swimlaneFillColor=default;strokeWidth=2;" vertex="1" parent="u2-2UF2B9QY7-RAUoQWc-17">
          <mxGeometry y="120" width="140" height="30" as="geometry" />
        </mxCell>
        <mxCell id="u2-2UF2B9QY7-RAUoQWc-23" value="shipping information&amp;nbsp;" style="text;strokeColor=none;fillColor=none;align=left;verticalAlign=middle;spacingLeft=4;spacingRight=4;overflow=hidden;points=[[0,0.5],[1,0.5]];portConstraint=eastwest;rotatable=0;whiteSpace=wrap;html=1;fontSize=8;labelBackgroundColor=default;swimlaneFillColor=default;strokeWidth=2;" vertex="1" parent="u2-2UF2B9QY7-RAUoQWc-17">
          <mxGeometry y="150" width="140" height="30" as="geometry" />
        </mxCell>
        <mxCell id="u2-2UF2B9QY7-RAUoQWc-25" style="edgeStyle=orthogonalEdgeStyle;rounded=0;orthogonalLoop=1;jettySize=auto;html=1;labelBackgroundColor=default;fontSize=8;entryX=0.5;entryY=0;entryDx=0;entryDy=0;strokeWidth=2;" edge="1" parent="1" source="u2-2UF2B9QY7-RAUoQWc-13" target="u2-2UF2B9QY7-RAUoQWc-17">
          <mxGeometry relative="1" as="geometry">
            <mxPoint x="99.99999999999989" y="125" as="targetPoint" />
          </mxGeometry>
        </mxCell>
        <mxCell id="u2-2UF2B9QY7-RAUoQWc-27" value="произвести" style="edgeLabel;html=1;align=center;verticalAlign=middle;resizable=0;points=[];fontSize=8;" vertex="1" connectable="0" parent="u2-2UF2B9QY7-RAUoQWc-25">
          <mxGeometry x="0.6926" y="-1" relative="1" as="geometry">
            <mxPoint as="offset" />
          </mxGeometry>
        </mxCell>
        <mxCell id="u2-2UF2B9QY7-RAUoQWc-29" value="" style="line;strokeWidth=2;fillColor=none;align=left;verticalAlign=middle;spacingTop=-1;spacingLeft=3;spacingRight=3;rotatable=0;labelPosition=right;points=[];portConstraint=eastwest;strokeColor=inherit;labelBackgroundColor=default;fontSize=8;flipV=0;flipH=0;direction=south;" vertex="1" parent="1">
          <mxGeometry x="105" y="390" width="10" height="25" as="geometry" />
        </mxCell>
        <mxCell id="u2-2UF2B9QY7-RAUoQWc-28" value="" style="ellipse;html=1;shape=endState;fillColor=#000000;strokeColor=#ff0000;labelBackgroundColor=default;strokeWidth=2;fontSize=8;" vertex="1" parent="1">
          <mxGeometry x="95" y="410" width="30" height="30" as="geometry" />
        </mxCell>
        <mxCell id="u2-2UF2B9QY7-RAUoQWc-30" value="" style="ellipse;html=1;shape=startState;fillColor=#000000;strokeColor=#ff0000;labelBackgroundColor=default;strokeWidth=2;fontSize=8;flipH=0;" vertex="1" parent="1">
          <mxGeometry x="265" y="450" width="30" height="30" as="geometry" />
        </mxCell>
        <mxCell id="u2-2UF2B9QY7-RAUoQWc-31" value="" style="edgeStyle=orthogonalEdgeStyle;html=1;verticalAlign=bottom;endArrow=open;endSize=8;strokeColor=#ff0000;rounded=0;labelBackgroundColor=default;fontSize=8;strokeWidth=2;entryX=0.5;entryY=1;entryDx=0;entryDy=0;entryPerimeter=0;" edge="1" source="u2-2UF2B9QY7-RAUoQWc-30" parent="1" target="u2-2UF2B9QY7-RAUoQWc-9">
          <mxGeometry relative="1" as="geometry">
            <mxPoint x="280" y="430" as="targetPoint" />
          </mxGeometry>
        </mxCell>
        <mxCell id="u2-2UF2B9QY7-RAUoQWc-32" value="Support by email" style="swimlane;fontStyle=0;childLayout=stackLayout;horizontal=1;startSize=30;horizontalStack=0;resizeParent=1;resizeParentMax=0;resizeLast=0;collapsible=1;marginBottom=0;whiteSpace=wrap;html=1;fontSize=8;labelBackgroundColor=default;swimlaneFillColor=default;strokeWidth=2;" vertex="1" parent="1">
          <mxGeometry x="480" y="50" width="140" height="120" as="geometry" />
        </mxCell>
        <mxCell id="u2-2UF2B9QY7-RAUoQWc-33" value="name, surname" style="text;strokeColor=none;fillColor=none;align=left;verticalAlign=middle;spacingLeft=4;spacingRight=4;overflow=hidden;points=[[0,0.5],[1,0.5]];portConstraint=eastwest;rotatable=0;whiteSpace=wrap;html=1;fontSize=8;labelBackgroundColor=default;swimlaneFillColor=default;strokeWidth=2;" vertex="1" parent="u2-2UF2B9QY7-RAUoQWc-32">
          <mxGeometry y="30" width="140" height="30" as="geometry" />
        </mxCell>
        <mxCell id="u2-2UF2B9QY7-RAUoQWc-34" value="id of&amp;nbsp;order" style="text;strokeColor=none;fillColor=none;align=left;verticalAlign=middle;spacingLeft=4;spacingRight=4;overflow=hidden;points=[[0,0.5],[1,0.5]];portConstraint=eastwest;rotatable=0;whiteSpace=wrap;html=1;fontSize=8;labelBackgroundColor=default;swimlaneFillColor=default;strokeWidth=2;" vertex="1" parent="u2-2UF2B9QY7-RAUoQWc-32">
          <mxGeometry y="60" width="140" height="30" as="geometry" />
        </mxCell>
        <mxCell id="u2-2UF2B9QY7-RAUoQWc-35" value="customer email" style="text;strokeColor=none;fillColor=none;align=left;verticalAlign=middle;spacingLeft=4;spacingRight=4;overflow=hidden;points=[[0,0.5],[1,0.5]];portConstraint=eastwest;rotatable=0;whiteSpace=wrap;html=1;fontSize=8;labelBackgroundColor=default;swimlaneFillColor=default;strokeWidth=2;" vertex="1" parent="u2-2UF2B9QY7-RAUoQWc-32">
          <mxGeometry y="90" width="140" height="30" as="geometry" />
        </mxCell>
        <mxCell id="u2-2UF2B9QY7-RAUoQWc-36" value="" style="curved=1;endArrow=classic;html=1;rounded=0;labelBackgroundColor=default;strokeWidth=2;fontSize=8;entryX=-0.015;entryY=0.149;entryDx=0;entryDy=0;entryPerimeter=0;exitX=0.5;exitY=0;exitDx=0;exitDy=0;exitPerimeter=0;" edge="1" parent="1" source="b17_bk7_YpQN-N9euL_j-1" target="u2-2UF2B9QY7-RAUoQWc-32">
          <mxGeometry width="50" height="50" relative="1" as="geometry">
            <mxPoint x="370" y="240" as="sourcePoint" />
            <mxPoint x="420" y="190" as="targetPoint" />
            <Array as="points">
              <mxPoint x="460" y="200" />
              <mxPoint x="350" y="170" />
              <mxPoint x="420" y="110" />
            </Array>
          </mxGeometry>
        </mxCell>
      </root>
    </mxGraphModel>
  </diagram>
</mxfile>
